<svg width="150" height="51" fill="none" xmlns="http://www.w3.org/2000/svg"><path d="M2.077 25V6.09h11.726v2.457H4.93v5.761h8.033v2.447H4.93V25H2.077Zm15.013 0V10.818h2.76V25h-2.76Zm1.394-16.37c-.48 0-.892-.16-1.237-.48a1.561 1.561 0 0 1-.508-1.163c0-.456.17-.844.508-1.164.345-.326.757-.49 1.237-.49.48 0 .89.164 1.228.49.345.32.517.708.517 1.163 0 .45-.172.838-.517 1.164-.338.32-.747.48-1.228.48Zm7.841 7.95V25h-2.76V10.818h2.65v2.308h.175a4.053 4.053 0 0 1 1.533-1.81c.702-.455 1.585-.683 2.65-.683.966 0 1.812.204 2.539.61.726.4 1.29.997 1.69 1.791.4.794.6 1.776.6 2.945V25H32.64v-8.688c0-1.028-.268-1.831-.803-2.41-.536-.585-1.271-.877-2.207-.877-.64 0-1.21.138-1.708.415a2.988 2.988 0 0 0-1.173 1.22c-.283.528-.424 1.169-.424 1.92Zm18.753 8.706c-1.373 0-2.555-.31-3.546-.932-.985-.628-1.742-1.493-2.271-2.595-.53-1.102-.794-2.363-.794-3.785 0-1.44.27-2.712.812-3.813.542-1.108 1.305-1.973 2.29-2.595.985-.622 2.145-.933 3.48-.933 1.078 0 2.038.2 2.882.6a5.167 5.167 0 0 1 2.04 1.663c.523.714.834 1.548.933 2.502h-2.687A3.22 3.22 0 0 0 47.2 13.68c-.523-.48-1.225-.72-2.105-.72-.77 0-1.443.203-2.022.61-.572.4-1.019.972-1.339 1.717-.32.739-.48 1.613-.48 2.622 0 1.034.157 1.927.471 2.678.314.75.757 1.332 1.33 1.745.578.412 1.258.618 2.04.618.523 0 .997-.095 1.422-.286.43-.197.79-.477 1.08-.84.296-.363.502-.8.619-1.311h2.687a5.22 5.22 0 0 1-.896 2.456c-.499.72-1.166 1.286-2.004 1.699-.83.412-1.806.618-2.926.618Zm12.905.028c-.899 0-1.711-.166-2.438-.499a4.105 4.105 0 0 1-1.726-1.468c-.419-.64-.628-1.425-.628-2.354 0-.8.154-1.459.462-1.976a3.407 3.407 0 0 1 1.246-1.228 6.511 6.511 0 0 1 1.754-.683 17.43 17.43 0 0 1 1.976-.351l2.068-.24c.53-.068.914-.175 1.155-.323.24-.148.36-.388.36-.72v-.065c0-.806-.228-1.431-.684-1.874-.449-.444-1.12-.665-2.012-.665-.93 0-1.662.206-2.198.618-.53.407-.895.86-1.099 1.358l-2.594-.591c.308-.862.757-1.558 1.348-2.087a5.469 5.469 0 0 1 2.059-1.163 8.038 8.038 0 0 1 2.447-.37c.566 0 1.166.068 1.8.204.64.129 1.237.369 1.791.72.56.35 1.019.852 1.376 1.505.357.646.535 1.486.535 2.52V25h-2.695v-1.939h-.111a3.926 3.926 0 0 1-.804 1.053c-.357.344-.815.63-1.375.858-.56.228-1.231.342-2.013.342Zm.6-2.216c.763 0 1.416-.15 1.958-.452.547-.302.963-.696 1.246-1.182.29-.493.434-1.019.434-1.58v-1.827c-.099.098-.29.19-.573.277-.277.08-.594.15-.95.212-.358.056-.705.108-1.044.157l-.85.11a6.847 6.847 0 0 0-1.467.343c-.437.16-.788.39-1.053.692-.258.296-.388.69-.388 1.182 0 .683.253 1.2.757 1.551.505.345 1.148.517 1.93.517Zm20.703-8.817-2.502.443a2.966 2.966 0 0 0-.499-.914 2.467 2.467 0 0 0-.905-.711c-.381-.185-.858-.277-1.431-.277-.782 0-1.434.175-1.957.526-.523.345-.785.791-.785 1.339 0 .474.175.855.526 1.145.351.289.917.526 1.699.71l2.253.518c1.305.301 2.277.766 2.918 1.394.64.628.96 1.443.96 2.447 0 .849-.246 1.606-.739 2.27-.486.66-1.166 1.177-2.04 1.552-.868.376-1.875.563-3.02.563-1.588 0-2.883-.338-3.887-1.015-1.003-.684-1.618-1.653-1.846-2.909l2.668-.406c.166.695.508 1.222 1.025 1.579.517.35 1.191.526 2.022.526.905 0 1.628-.188 2.17-.563.541-.382.812-.847.812-1.394 0-.444-.166-.816-.498-1.117-.327-.302-.828-.53-1.505-.684l-2.401-.526c-1.323-.302-2.302-.782-2.936-1.44-.628-.659-.942-1.493-.942-2.502 0-.838.234-1.57.702-2.198.468-.628 1.114-1.117 1.939-1.468.825-.357 1.77-.536 2.834-.536 1.533 0 2.74.333 3.62.998.88.658 1.462 1.542 1.745 2.65Z" fill="#000"/><path d="M6.077 45V26.09h6.925c1.342 0 2.453.223 3.333.666.88.437 1.54 1.03 1.976 1.782.437.744.656 1.585.656 2.52 0 .788-.145 1.453-.434 1.995-.29.535-.677.966-1.164 1.292-.48.32-1.01.554-1.588.702v.184c.628.031 1.24.234 1.838.61.603.37 1.101.895 1.495 1.579.394.683.591 1.514.591 2.493 0 .966-.227 1.834-.683 2.603-.45.764-1.145 1.37-2.087 1.82-.941.442-2.145.664-3.61.664H6.077Zm2.853-2.447h4.118c1.367 0 2.345-.264 2.936-.794.591-.53.887-1.19.887-1.985 0-.597-.151-1.145-.453-1.643a3.233 3.233 0 0 0-1.292-1.191c-.554-.296-1.213-.444-1.976-.444H8.93v6.057Zm0-8.282h3.823c.64 0 1.216-.123 1.726-.369.517-.246.927-.59 1.228-1.034.308-.45.462-.979.462-1.588 0-.782-.274-1.437-.822-1.967-.547-.53-1.388-.794-2.52-.794H8.93v5.752Zm18.065 11.043c-.899 0-1.712-.166-2.438-.499a4.105 4.105 0 0 1-1.726-1.468c-.419-.64-.628-1.425-.628-2.354 0-.8.154-1.459.461-1.976a3.407 3.407 0 0 1 1.247-1.228 6.51 6.51 0 0 1 1.754-.683c.646-.154 1.305-.271 1.976-.351l2.068-.24c.53-.068.914-.175 1.154-.323.24-.148.36-.388.36-.72v-.065c0-.806-.227-1.431-.683-1.874-.45-.444-1.12-.665-2.013-.665-.93 0-1.662.206-2.197.618-.53.407-.896.86-1.099 1.358l-2.594-.591c.308-.862.757-1.557 1.348-2.087a5.469 5.469 0 0 1 2.059-1.163 8.038 8.038 0 0 1 2.446-.37c.567 0 1.167.068 1.8.204.641.129 1.238.369 1.792.72.56.35 1.019.852 1.376 1.505.357.646.535 1.486.535 2.52V45h-2.696v-1.939h-.11a3.928 3.928 0 0 1-.804 1.053c-.357.344-.815.63-1.375.858-.56.228-1.232.342-2.013.342Zm.6-2.216c.763 0 1.416-.15 1.957-.452.548-.302.963-.696 1.247-1.182.289-.493.434-1.019.434-1.58v-1.827c-.099.098-.29.19-.573.277a8.92 8.92 0 0 1-.95.212c-.358.056-.706.108-1.044.157l-.85.11a6.845 6.845 0 0 0-1.468.343c-.437.16-.787.39-1.052.692-.259.296-.388.69-.388 1.182 0 .683.252 1.2.757 1.551.505.345 1.148.517 1.93.517ZM37.67 45V30.818h2.669v2.253h.147a3.428 3.428 0 0 1 1.367-1.8 3.91 3.91 0 0 1 2.234-.665 11.818 11.818 0 0 1 1.173.064v2.641a4.937 4.937 0 0 0-.591-.102 5.638 5.638 0 0 0-.85-.064c-.652 0-1.234.138-1.745.415a3.087 3.087 0 0 0-1.643 2.78V45h-2.76Zm13.979.314c-.899 0-1.711-.166-2.438-.499a4.105 4.105 0 0 1-1.726-1.468c-.419-.64-.628-1.425-.628-2.354 0-.8.154-1.459.462-1.976a3.407 3.407 0 0 1 1.246-1.228 6.51 6.51 0 0 1 1.754-.683 17.43 17.43 0 0 1 1.976-.351l2.069-.24c.529-.068.914-.175 1.154-.323.24-.148.36-.388.36-.72v-.065c0-.806-.228-1.431-.684-1.874-.449-.444-1.12-.665-2.012-.665-.93 0-1.662.206-2.198.618-.53.407-.895.86-1.099 1.358l-2.594-.591c.308-.862.757-1.557 1.348-2.087a5.469 5.469 0 0 1 2.059-1.163 8.038 8.038 0 0 1 2.447-.37c.566 0 1.166.068 1.8.204.64.129 1.237.369 1.791.72.56.35 1.019.852 1.376 1.505.357.646.535 1.486.535 2.52V45h-2.695v-1.939h-.111a3.928 3.928 0 0 1-.803 1.053c-.357.344-.816.63-1.376.858-.56.228-1.231.342-2.013.342Zm.6-2.216c.763 0 1.416-.15 1.957-.452.548-.302.964-.696 1.247-1.182.29-.493.434-1.019.434-1.58v-1.827c-.099.098-.29.19-.572.277a8.92 8.92 0 0 1-.951.212c-.357.056-.705.108-1.044.157l-.85.11a6.845 6.845 0 0 0-1.467.343c-.437.16-.788.39-1.053.692-.258.296-.388.69-.388 1.182 0 .683.253 1.2.757 1.551.505.345 1.148.517 1.93.517Zm12.836-6.518V45h-2.76V26.09h2.723v7.036h.176c.332-.763.84-1.37 1.523-1.818.683-.45 1.576-.674 2.678-.674.972 0 1.822.2 2.548.6.733.4 1.299.997 1.699 1.79.406.789.61 1.774.61 2.955V45H71.52v-8.688c0-1.04-.268-1.847-.804-2.42-.535-.578-1.28-.867-2.234-.867-.653 0-1.237.138-1.754.415-.511.277-.914.684-1.21 1.22-.29.528-.434 1.169-.434 1.92Zm18.854 8.706c-1.33 0-2.49-.305-3.48-.914-.992-.61-1.761-1.462-2.31-2.557-.547-1.096-.82-2.376-.82-3.841 0-1.471.273-2.758.82-3.86.549-1.101 1.318-1.957 2.31-2.566.99-.61 2.15-.914 3.48-.914s2.49.304 3.48.914c.992.609 1.761 1.465 2.309 2.566.548 1.102.822 2.389.822 3.86 0 1.465-.274 2.745-.822 3.84-.548 1.096-1.317 1.949-2.308 2.558-.991.61-2.151.914-3.481.914Zm.01-2.317c.86 0 1.575-.228 2.141-.684.566-.455.985-1.061 1.256-1.818.277-.758.415-1.591.415-2.502 0-.905-.138-1.736-.415-2.493-.271-.764-.69-1.376-1.256-1.838-.566-.461-1.28-.692-2.142-.692-.868 0-1.588.23-2.16.692-.567.462-.988 1.074-1.265 1.838-.271.757-.406 1.588-.406 2.492 0 .912.135 1.745.406 2.503.277.757.698 1.363 1.265 1.819.572.455 1.292.683 2.16.683Zm12.443-6.39V45h-2.76V30.818h2.65v2.308h.175a4.053 4.053 0 0 1 1.532-1.81c.702-.455 1.585-.682 2.65-.682.966 0 1.813.203 2.539.609.726.4 1.29.997 1.69 1.791.4.794.6 1.776.6 2.945V45h-2.761v-8.688c0-1.028-.268-1.831-.803-2.41-.536-.585-1.271-.877-2.207-.877-.64 0-1.21.138-1.708.415a2.988 2.988 0 0 0-1.172 1.22c-.284.528-.425 1.169-.425 1.92Zm16.905 8.735c-.898 0-1.711-.166-2.437-.499a4.11 4.11 0 0 1-1.727-1.468c-.418-.64-.627-1.425-.627-2.354 0-.8.153-1.459.461-1.976a3.404 3.404 0 0 1 1.247-1.228 6.51 6.51 0 0 1 1.754-.683 17.42 17.42 0 0 1 1.976-.351l2.068-.24c.529-.068.914-.175 1.154-.323.24-.148.36-.388.36-.72v-.065c0-.806-.228-1.431-.683-1.874-.449-.444-1.12-.665-2.013-.665-.929 0-1.662.206-2.197.618-.53.407-.896.86-1.099 1.358l-2.595-.591c.308-.862.758-1.557 1.348-2.087a5.48 5.48 0 0 1 2.059-1.163 8.045 8.045 0 0 1 2.447-.37 8.64 8.64 0 0 1 1.801.204c.64.129 1.237.369 1.791.72.56.35 1.018.852 1.375 1.505.357.646.536 1.486.536 2.52V45H117.6v-1.939h-.111a3.917 3.917 0 0 1-.803 1.053c-.357.344-.816.63-1.376.858-.56.228-1.231.342-2.013.342Zm.601-2.216c.763 0 1.415-.15 1.957-.452.548-.302.963-.696 1.246-1.182.29-.493.434-1.019.434-1.58v-1.827c-.098.098-.289.19-.572.277a8.92 8.92 0 0 1-.951.212c-.357.056-.705.108-1.043.157l-.85.11a6.85 6.85 0 0 0-1.468.343c-.437.16-.788.39-1.052.692-.259.296-.388.69-.388 1.182 0 .683.252 1.2.757 1.551.505.345 1.148.517 1.93.517Z" fill="#36374C"/></svg>